<svg width="12" height="7" viewBox="0 0 12 7" fill="none" xmlns="http://www.w3.org/2000/svg">
<g clip-path="url(#clip0_5287_404)">
<path d="M6.36269 6.55958L11.6157 1.4525C11.7387 1.33292 11.8047 1.17542 11.8047 1.00917C11.8047 0.842917 11.7387 0.682501 11.6157 0.565834L11.2287 0.189584C10.9767 -0.0554162 10.5687 -0.0554162 10.3167 0.189584L5.90369 4.48L1.48769 0.18375C1.36469 0.0641667 1.20269 6.11086e-08 1.03169 5.3634e-08C0.860694 4.61594e-08 0.695694 0.0641667 0.575694 0.18375L0.188694 0.56C0.0656939 0.679583 -0.000305176 0.837083 -0.000305176 1.00333C-0.000305176 1.16958 0.0656939 1.33 0.188694 1.44667L5.44469 6.55958C5.56769 6.67917 5.72969 6.74333 5.90369 6.74333C6.07769 6.74333 6.23969 6.67917 6.36269 6.55958Z" fill="#191919"/>
</g>
<defs>
<clipPath id="clip0_5287_404">
<rect width="7" height="12" fill="white" transform="translate(12) rotate(90)"/>
</clipPath>
</defs>
</svg>
