<svg width="38" height="38" viewBox="0 0 38 38" fill="none" xmlns="http://www.w3.org/2000/svg">
<path d="M34.8327 23.75V14.25C34.8327 6.33329 31.666 3.16663 23.7493 3.16663H14.2493C6.33268 3.16663 3.16602 6.33329 3.16602 14.25V23.75C3.16602 31.6666 6.33268 34.8333 14.2493 34.8333H23.7493C31.666 34.8333 34.8327 31.6666 34.8327 23.75Z" stroke="#E5303D" stroke-width="2" stroke-linecap="round" stroke-linejoin="round"/>
<path d="M3.99023 11.2574H34.0102" stroke="#E5303D" stroke-width="2" stroke-linecap="round" stroke-linejoin="round"/>
<path d="M13.4902 3.34082V11.0358" stroke="#E5303D" stroke-width="2" stroke-linecap="round" stroke-linejoin="round"/>
<path d="M24.5098 3.34082V10.3233" stroke="#E5303D" stroke-width="2" stroke-linecap="round" stroke-linejoin="round"/>
<path d="M15.4375 22.8792V20.9792C15.4375 18.5409 17.1633 17.5434 19.2692 18.7625L20.9158 19.7125L22.5625 20.6625C24.6683 21.8817 24.6683 23.8767 22.5625 25.0959L20.9158 26.0459L19.2692 26.9959C17.1633 28.215 15.4375 27.2175 15.4375 24.7792V22.8792V22.8792Z" stroke="#E5303D" stroke-width="2" stroke-miterlimit="10" stroke-linecap="round" stroke-linejoin="round"/>
</svg>
