<svg width="38" height="38" viewBox="0 0 38 38" fill="none" xmlns="http://www.w3.org/2000/svg">
<path d="M11.4945 3.16663H26.4887C27.5179 3.16663 28.4362 3.19834 29.2595 3.30917C33.6454 3.8 34.8329 5.85831 34.8329 11.495V21.5017C34.8329 27.1383 33.6454 29.1966 29.2595 29.6875C28.4362 29.7983 27.5337 29.83 26.4887 29.83H11.4945C10.4654 29.83 9.54704 29.7983 8.72371 29.6875C4.33787 29.1966 3.15039 27.1383 3.15039 21.5017V11.495C3.15039 5.85831 4.33787 3.8 8.72371 3.30917C9.54704 3.19834 10.4654 3.16663 11.4945 3.16663Z" stroke="#E5303D" stroke-width="2" stroke-linecap="round" stroke-linejoin="round"/>
<path d="M21.502 13.1733H27.3286" stroke="#E5303D" stroke-width="2" stroke-linecap="round" stroke-linejoin="round"/>
<path d="M10.6719 22.3408H10.7035H27.3444" stroke="#E5303D" stroke-width="2" stroke-linecap="round" stroke-linejoin="round"/>
<path d="M11.084 34.8334H26.9173" stroke="#E5303D" stroke-width="2" stroke-linecap="round" stroke-linejoin="round"/>
<path d="M11.3923 13.1416H11.4066" stroke="#E5303D" stroke-width="2" stroke-linecap="round" stroke-linejoin="round"/>
<path d="M16.617 13.1416H16.6312" stroke="#E5303D" stroke-width="2" stroke-linecap="round" stroke-linejoin="round"/>
</svg>
