<svg width="38" height="38" viewBox="0 0 38 38" fill="none" xmlns="http://www.w3.org/2000/svg">
<path d="M19.2383 26.125V29.45" stroke="#E5303D" stroke-width="2" stroke-linecap="round" stroke-linejoin="round"/>
<path d="M11.3203 34.8334H27.1536V33.25C27.1536 31.5084 25.7286 30.0834 23.987 30.0834H14.487C12.7453 30.0834 11.3203 31.5084 11.3203 33.25V34.8334V34.8334Z" stroke="#E5303D" stroke-width="2" stroke-miterlimit="10"/>
<path d="M9.73828 34.8334H28.7383" stroke="#E5303D" stroke-width="2" stroke-linecap="round" stroke-linejoin="round"/>
<path d="M18.9993 25.3333C12.8718 25.3333 7.91602 20.3775 7.91602 14.25V9.49996C7.91602 6.00079 10.7502 3.16663 14.2493 3.16663H23.7493C27.2485 3.16663 30.0827 6.00079 30.0827 9.49996V14.25C30.0827 20.3775 25.1268 25.3333 18.9993 25.3333Z" stroke="#E5303D" stroke-width="2" stroke-linecap="round" stroke-linejoin="round"/>
<path d="M8.6613 18.4458C7.4738 18.0658 6.4288 17.3691 5.60547 16.5458C4.18047 14.9625 3.23047 13.0625 3.23047 10.8458C3.23047 8.62912 4.97214 6.88745 7.1888 6.88745H8.21797C7.9013 7.61578 7.74297 8.42328 7.74297 9.26245V14.0125C7.74297 15.5958 8.07547 17.0841 8.6613 18.4458Z" stroke="#E5303D" stroke-width="2" stroke-linecap="round" stroke-linejoin="round"/>
<path d="M29.3398 18.4458C30.5273 18.0658 31.5723 17.3691 32.3957 16.5458C33.8207 14.9625 34.7707 13.0625 34.7707 10.8458C34.7707 8.62912 33.029 6.88745 30.8123 6.88745H29.7832C30.0998 7.61578 30.2582 8.42328 30.2582 9.26245V14.0125C30.2582 15.5958 29.9257 17.0841 29.3398 18.4458Z" stroke="#E5303D" stroke-width="2" stroke-linecap="round" stroke-linejoin="round"/>
</svg>
