<svg width="38" height="38" viewBox="0 0 38 38" fill="none" xmlns="http://www.w3.org/2000/svg">
<path d="M24.3682 8.24913L26.6006 12.7141C26.9015 13.3316 27.709 13.9174 28.3898 14.0441L32.4273 14.7091C35.0082 15.1366 35.6098 17.0049 33.7573 18.8733L30.6065 22.0241C30.084 22.5466 29.7832 23.5758 29.9573 24.32L30.8598 28.215C31.5723 31.2866 29.9257 32.4899 27.2182 30.8749L23.434 28.6266C22.7531 28.215 21.6132 28.215 20.9323 28.6266L17.1481 30.8749C14.4406 32.4741 12.794 31.2866 13.5065 28.215L14.409 24.32C14.5832 23.5916 14.2823 22.5625 13.7598 22.0241L10.609 18.8733C8.75651 17.0208 9.35817 15.1524 11.939 14.7091L15.9765 14.0441C16.6573 13.9333 17.4648 13.3316 17.7657 12.7141L19.9982 8.24913C21.1857 5.82663 23.149 5.82663 24.3682 8.24913Z" stroke="#E5303D" stroke-width="2" stroke-linecap="round" stroke-linejoin="round"/>
<path d="M12.666 7.91663H3.16602" stroke="#E5303D" stroke-width="2" stroke-linecap="round" stroke-linejoin="round"/>
<path d="M7.91602 30.0834H3.16602" stroke="#E5303D" stroke-width="2" stroke-linecap="round" stroke-linejoin="round"/>
<path d="M4.74935 19H3.16602" stroke="#E5303D" stroke-width="2" stroke-linecap="round" stroke-linejoin="round"/>
</svg>
