<svg width="38" height="38" viewBox="0 0 38 38" fill="none" xmlns="http://www.w3.org/2000/svg">
<path d="M26.4408 30.0517H11.5574C10.8924 30.0517 10.1483 29.5292 9.92659 28.8959L3.37159 10.5609C2.43743 7.93253 3.52993 7.12503 5.77826 8.74003L11.9533 13.1575C12.9824 13.87 14.1541 13.5059 14.5974 12.35L17.3841 4.92419C18.2708 2.54919 19.7433 2.54919 20.6299 4.92419L23.4166 12.35C23.8599 13.5059 25.0316 13.87 26.0449 13.1575L31.8399 9.02503C34.3099 7.25169 35.4974 8.1542 34.4841 11.02L28.0874 28.9275C27.8499 29.5292 27.1058 30.0517 26.4408 30.0517Z" stroke="#E5303D" stroke-width="2" stroke-linecap="round" stroke-linejoin="round"/>
<path d="M10.291 34.8333H27.7077" stroke="#E5303D" stroke-width="2" stroke-linecap="round" stroke-linejoin="round"/>
<path d="M15.041 22.1667H22.9577" stroke="#E5303D" stroke-width="2" stroke-linecap="round" stroke-linejoin="round"/>
</svg>
