<svg width="38" height="38" viewBox="0 0 38 38" fill="none" xmlns="http://www.w3.org/2000/svg">
<path d="M4.75065 14.2501C6.49955 14.2501 7.91732 12.8323 7.91732 11.0834C7.91732 9.33451 6.49955 7.91675 4.75065 7.91675C3.00175 7.91675 1.58398 9.33451 1.58398 11.0834C1.58398 12.8323 3.00175 14.2501 4.75065 14.2501Z" stroke="#E5303D" stroke-width="2" stroke-miterlimit="10" stroke-linecap="round" stroke-linejoin="round"/>
<path d="M33.2507 14.2501C34.9996 14.2501 36.4173 12.8323 36.4173 11.0834C36.4173 9.33451 34.9996 7.91675 33.2507 7.91675C31.5017 7.91675 30.084 9.33451 30.084 11.0834C30.084 12.8323 31.5017 14.2501 33.2507 14.2501Z" stroke="#E5303D" stroke-width="2" stroke-miterlimit="10" stroke-linecap="round" stroke-linejoin="round"/>
<path d="M30.0833 11.0834H23.75" stroke="#E5303D" stroke-width="2" stroke-miterlimit="10" stroke-linecap="round" stroke-linejoin="round"/>
<path d="M14.2513 11.0834H7.91797" stroke="#E5303D" stroke-width="2" stroke-miterlimit="10" stroke-linecap="round" stroke-linejoin="round"/>
<path d="M11.8757 26.125V29.2917C11.8757 30.2575 11.2898 31.0966 10.4665 31.445C10.1657 31.5875 9.84898 31.6667 9.50065 31.6667H6.33398C5.01982 31.6667 3.95898 30.6058 3.95898 29.2917V26.125C3.95898 24.8108 5.01982 23.75 6.33398 23.75H9.50065C10.8148 23.75 11.8757 24.8108 11.8757 26.125Z" stroke="#E5303D" stroke-width="2" stroke-miterlimit="10" stroke-linecap="round" stroke-linejoin="round"/>
<path d="M34.0417 26.125V29.2917C34.0417 30.6058 32.9808 31.6667 31.6667 31.6667H28.5C28.1517 31.6667 27.835 31.5875 27.5342 31.445C26.7108 31.0966 26.125 30.2575 26.125 29.2917V26.125C26.125 24.8108 27.1858 23.75 28.5 23.75H31.6667C32.9808 23.75 34.0417 24.8108 34.0417 26.125Z" stroke="#E5303D" stroke-width="2" stroke-miterlimit="10" stroke-linecap="round" stroke-linejoin="round"/>
<path d="M23.75 8.70837V13.4584C23.75 14.7567 22.6733 15.8334 21.375 15.8334H16.625C15.3267 15.8334 14.25 14.7567 14.25 13.4584V8.70837C14.25 7.41004 15.3267 6.33337 16.625 6.33337H21.375C22.6733 6.33337 23.75 7.41004 23.75 8.70837Z" stroke="#E5303D" stroke-width="2" stroke-miterlimit="10" stroke-linecap="round" stroke-linejoin="round"/>
<path d="M23.75 12.2391C27.5025 14.1391 30.0833 18.2242 30.0833 22.9583C30.0833 23.2275 30.0675 23.4808 30.0358 23.75" stroke="#E5303D" stroke-width="2" stroke-miterlimit="10" stroke-linecap="round" stroke-linejoin="round"/>
<path d="M7.96547 23.75C7.9338 23.4808 7.91797 23.2275 7.91797 22.9583C7.91797 18.2242 10.4988 14.1391 14.2513 12.2391" stroke="#E5303D" stroke-width="2" stroke-miterlimit="10" stroke-linecap="round" stroke-linejoin="round"/>
</svg>
