<svg width="38" height="38" viewBox="0 0 38 38" fill="none" xmlns="http://www.w3.org/2000/svg">
<path d="M34.8327 20.5833V14.25C34.8327 6.33329 31.666 3.16663 23.7493 3.16663H14.2493C6.33268 3.16663 3.16602 6.33329 3.16602 14.25V23.75C3.16602 31.6666 6.33268 34.8333 14.2493 34.8333H20.5827" stroke="#E5303D" stroke-width="2" stroke-linecap="round" stroke-linejoin="round"/>
<path d="M11.6055 22.9425L15.3738 18.05C15.9121 17.3533 16.9096 17.2267 17.6063 17.765L20.5038 20.045C21.2005 20.5833 22.198 20.4567 22.7363 19.7758L26.3938 15.0575" stroke="#E5303D" stroke-width="2" stroke-linecap="round" stroke-linejoin="round"/>
<path d="M30.8436 25.0483L31.2869 25.9508C31.5086 26.3941 32.0627 26.8058 32.5536 26.9008L33.1553 26.9958C34.9603 27.2966 35.3877 28.6266 34.0894 29.9408L33.5352 30.4949C33.1711 30.8749 32.9653 31.6033 33.0761 32.1099L33.1553 32.4424C33.6461 34.6274 32.4903 35.4666 30.5903 34.3266L30.1786 34.0891C29.6877 33.8041 28.8961 33.8041 28.4053 34.0891L27.9936 34.3266C26.0777 35.4824 24.9219 34.6274 25.4286 32.4424L25.5077 32.1099C25.6186 31.6033 25.4128 30.8749 25.0486 30.4949L24.4944 29.9408C23.1961 28.6266 23.6236 27.2966 25.4286 26.9958L26.0303 26.9008C26.5053 26.8216 27.0752 26.3941 27.2969 25.9508L27.7402 25.0483C28.5952 23.3224 29.9886 23.3224 30.8436 25.0483Z" stroke="#E5303D" stroke-width="2" stroke-linecap="round" stroke-linejoin="round"/>
</svg>
