<svg width="96" height="96" viewBox="0 0 96 96" fill="none" xmlns="http://www.w3.org/2000/svg">
<rect width="96" height="96" fill="#E5303D"/>
<path d="M33.7207 68.75C29.5207 68.75 25.9374 68.05 22.9707 66.65C20.0374 65.2167 17.7874 63.1667 16.2207 60.5C14.6874 57.8 13.9207 54.5833 13.9207 50.85C13.9207 46.95 14.754 43.55 16.4207 40.65C18.1207 37.75 20.4707 35.5333 23.4707 34C26.4707 32.4667 29.904 31.7 33.7707 31.7C36.504 31.7 39.404 32.0833 42.4707 32.85L42.7207 29.5H42.9707L45.2707 40.9H45.0207C43.7874 38.3667 42.0707 36.3167 39.8707 34.75C37.6707 33.1833 35.1707 32.4 32.3707 32.4C28.704 32.4 25.7207 33.7167 23.4207 36.35C21.1207 38.9833 19.9707 43.0333 19.9707 48.5C19.9707 52.6333 20.554 56.1833 21.7207 59.15C22.9207 62.1167 24.554 64.3667 26.6207 65.9C28.7207 67.4 31.104 68.15 33.7707 68.15C35.0374 68.15 36.2374 67.9833 37.3707 67.65C38.504 67.2833 39.4707 66.85 40.2707 66.35V54.5L34.7207 53.5V53.25H48.8207V53.5L45.4207 54.5V65.75H47.8207V66C45.154 66.9 42.7374 67.5833 40.5707 68.05C38.4374 68.5167 36.154 68.75 33.7207 68.75ZM70.5371 68.75C66.4038 68.75 62.8538 68.05 59.8871 66.65C56.9204 65.25 54.6538 63.2167 53.0871 60.55C51.5204 57.85 50.7371 54.6167 50.7371 50.85C50.7371 46.95 51.5704 43.55 53.2371 40.65C54.9038 37.75 57.2204 35.5333 60.1871 34C63.1871 32.4667 66.6204 31.7 70.4871 31.7C73.1871 31.7 76.1204 32.0833 79.2871 32.85L79.5371 29.5H79.7871L82.0871 40.9H81.8371C80.6038 38.3667 78.8871 36.3167 76.6871 34.75C74.4871 33.1833 71.9871 32.4 69.1871 32.4C65.5204 32.4 62.5371 33.7167 60.2371 36.35C57.9371 38.9833 56.7871 43.0333 56.7871 48.5C56.7871 52.5333 57.4204 56.0333 58.6871 59C59.9538 61.9667 61.6704 64.2333 63.8371 65.8C66.0038 67.3667 68.4371 68.15 71.1371 68.15C74.1371 68.15 76.5871 67.1167 78.4871 65.05C80.4204 62.9833 81.9871 60.1667 83.1871 56.6H83.4371L82.0371 66.7C78.1371 68.0667 74.3038 68.75 70.5371 68.75Z" fill="white"/>
</svg>
